<svg width="40" height="39" viewBox="0 0 40 39" fill="none" xmlns="http://www.w3.org/2000/svg">
<rect x="1" y="1" width="25" height="28" stroke="white" stroke-width="2"/>
<rect x="8" y="6" width="24" height="30" fill="#DFDAD9"/>
<path fill-rule="evenodd" clip-rule="evenodd" d="M38.182 30.925C38.8407 29.253 39.17 27.3973 39.17 25.358C39.17 23.3313 38.8407 21.482 38.182 19.81C37.536 18.1253 36.6177 16.6877 35.427 15.497C34.2364 14.2937 32.8114 13.3627 31.152 12.704C29.4927 12.0453 27.6497 11.716 25.623 11.716H15.363V39H25.623C27.6497 39 29.4927 38.6707 31.152 38.012C32.8114 37.3533 34.2364 36.4287 35.427 35.238C36.6177 34.0347 37.536 32.597 38.182 30.925Z" fill="#C0AF9E"/>
</svg>
