<svg width="30" height="30" viewBox="0 0 30 30" fill="none" xmlns="http://www.w3.org/2000/svg">
<g clip-path="url(#clip0)">
<path d="M22.3788 29.5205L23.3683 28.5378C23.6773 28.2285 23.8475 27.8171 23.8475 27.3773C23.8475 26.9378 23.6773 26.5258 23.3683 26.2166L12.1579 15.0067L23.3807 3.78393C23.6897 3.47515 23.8597 3.0632 23.8597 2.62368C23.8597 2.18416 23.6897 1.77197 23.3807 1.46294L22.3973 0.480004C21.7578 -0.160001 20.7161 -0.160001 20.0765 0.480004L6.66643 13.8421C6.35765 14.1508 6.14008 14.5623 6.14008 15.0057L6.14008 15.0109C6.14008 15.4506 6.35789 15.8621 6.66643 16.1709L20.0402 29.5205C20.349 29.8298 20.7729 29.9995 21.2124 30C21.6522 30 22.0702 29.8298 22.3788 29.5205Z" fill="#DFDAD9"/>
</g>
<defs>
<clipPath id="clip0">
<rect width="30" height="30" fill="white" transform="translate(30) rotate(90)"/>
</clipPath>
</defs>
</svg>
