<svg width="30" height="30" viewBox="0 0 30 30" fill="none" xmlns="http://www.w3.org/2000/svg">
<g clip-path="url(#clip0)">
<path d="M9.97127 29.5204L23.3337 16.1577C23.6424 15.849 23.812 15.4373 23.812 14.9887C23.812 14.5492 23.6424 14.1373 23.3337 13.829L9.98396 0.478778C9.67494 0.169999 9.26299 -6.35955e-07 8.82348 -6.55167e-07C8.38397 -6.74379e-07 7.97177 0.169755 7.66299 0.478778L6.67982 1.46194C6.37105 1.77072 6.20056 2.18292 6.20056 2.62243C6.20056 3.06194 6.37105 3.47389 6.67982 3.78291L17.8903 14.9934L6.6669 26.2162C6.35836 26.525 6.18812 26.937 6.18812 27.3767C6.18812 27.8162 6.35836 28.2279 6.6669 28.537L7.65056 29.5204C8.29031 30.1599 9.33152 30.1599 9.97127 29.5204Z" fill="#DFDAD9"/>
</g>
<defs>
<clipPath id="clip0">
<rect width="30" height="30" fill="white" transform="translate(30) rotate(90)"/>
</clipPath>
</defs>
</svg>
