<svg width="77" height="85" viewBox="0 0 77 85" fill="none" xmlns="http://www.w3.org/2000/svg">
<g clip-path="url(#clip0)">
<path d="M35.0351 1.07694C37.1287 -0.12141 39.8556 -0.126822 41.9473 1.07694C52.4709 7.0233 62.9977 12.9603 73.5195 18.9103C75.4985 20.025 76.8222 22.2275 76.8021 24.5078V60.2834C76.8168 62.6581 75.3623 64.9132 73.2744 66.0027C62.7854 71.9162 52.3019 77.837 41.8147 83.7506C39.6778 84.9724 36.8962 84.8783 34.8261 83.5564C31.6815 81.7334 28.5315 79.9195 25.3866 78.0984C24.744 77.7153 24.0196 77.4103 23.5658 76.7872C23.9669 76.2466 24.6842 76.1792 25.2669 75.9431C26.5796 75.5257 27.7851 74.8557 28.991 74.2056C29.2959 73.9969 29.6682 74.0769 29.9605 74.2636C32.6495 75.8054 35.3147 77.392 38.0128 78.919C38.5883 79.2513 39.1711 78.8102 39.6631 78.5359C49.956 72.7186 60.2615 66.9232 70.5526 61.104C70.9339 60.9206 71.1447 60.5158 71.1137 60.0981C71.121 48.2965 71.1155 36.4928 71.1174 24.6912C71.161 24.2173 70.8867 23.7816 70.4582 23.5876C60.0056 17.7011 49.5584 11.8056 39.1077 5.91756C38.9266 5.79308 38.7121 5.72629 38.4924 5.72597C38.2727 5.72565 38.058 5.79181 37.8765 5.91576C27.4258 11.8056 16.9804 17.7065 6.52965 23.5927C6.10263 23.787 5.81605 24.2155 5.86687 24.6912C5.86868 36.4928 5.86687 48.2965 5.86687 60.0999C5.84875 60.3037 5.89351 60.5082 5.99513 60.6858C6.09675 60.8634 6.25034 61.0055 6.43522 61.0932C9.22406 62.6747 12.0165 64.245 14.8071 65.821C16.3793 66.6673 18.3096 67.1701 20.0417 66.5217C21.5702 65.9735 22.6417 64.4137 22.6125 62.7907C22.627 51.058 22.6053 39.3235 22.6233 27.5926C22.5852 27.0717 23.0792 26.6414 23.5856 26.6904C24.9256 26.6814 26.2674 26.6724 27.6074 26.694C28.1667 26.6814 28.5517 27.2422 28.4825 27.767C28.4771 39.574 28.4969 51.3813 28.4735 63.1883C28.4771 66.335 27.1843 69.7589 24.2737 71.2986C20.6879 73.1561 16.256 72.7622 12.7136 70.981C9.64687 69.4504 6.7203 67.644 3.70803 66.0042C1.61475 64.9207 0.167409 62.6566 0.182144 60.2837V24.5078C0.160191 22.1803 1.53657 19.9378 3.57722 18.8393C14.0644 12.9209 24.5497 6.99804 35.0351 1.07694Z" fill="#8CC84B"/>
<path d="M44.1837 25.8586C48.7576 25.5642 53.6541 25.6841 57.77 27.9374C60.9567 29.6641 62.7234 33.288 62.7796 36.8284C62.6906 37.3059 62.1914 37.5693 61.7355 37.5365C60.4085 37.5347 59.0811 37.5546 57.7541 37.5275C57.1911 37.5492 56.864 37.0301 56.7933 36.5325C56.412 34.8385 55.4882 33.1608 53.8938 32.3438C51.4463 31.1184 48.6084 31.18 45.9396 31.2056C43.9912 31.309 41.8961 31.4777 40.2455 32.6235C38.9783 33.4913 38.5934 35.2433 39.0457 36.6542C39.4721 37.6674 40.6416 37.9942 41.5984 38.2955C47.1105 39.7372 52.9516 39.5937 58.3585 41.491C60.597 42.2644 62.7868 43.768 63.5531 46.1117C64.5554 49.253 64.116 53.0078 61.8811 55.5296C60.0687 57.6048 57.429 58.7343 54.7962 59.3477C51.2938 60.1287 47.6591 60.1485 44.1022 59.8018C40.7576 59.4205 37.2772 58.5418 34.6952 56.263C32.4874 54.3459 31.409 51.3589 31.516 48.476C31.5416 47.9891 32.0264 47.6496 32.4928 47.6896C33.8291 47.6788 35.1655 47.6752 36.5019 47.6914C37.0357 47.6532 37.4314 48.1145 37.4588 48.6176C37.7054 50.2316 38.3119 51.9255 39.7193 52.8824C42.4353 54.6346 45.8433 54.5146 48.9533 54.5637C51.5299 54.4494 54.4221 54.4148 56.5247 52.7118C57.6341 51.7405 57.9628 50.1155 57.663 48.7174C57.3382 47.5371 56.1034 46.9871 55.0431 46.6275C49.6017 44.9062 43.6953 45.5308 38.3065 43.5842C36.1188 42.8111 34.0033 41.3493 33.1628 39.1018C31.99 35.9208 32.5274 31.9862 34.9965 29.5495C37.4041 27.1258 40.8794 26.1923 44.1837 25.8583V25.8586Z" fill="#8CC84B"/>
</g>
<defs>
<clipPath id="clip0">
<rect width="77" height="84.8018" fill="white"/>
</clipPath>
</defs>
</svg>
