<svg width="100" height="100" viewBox="0 0 100 100" fill="none" xmlns="http://www.w3.org/2000/svg">
<path d="M92.5998 0H7.40832C3.31664 0 0 3.22085 0 7.17075V92.85C0 96.7875 3.31664 100 7.40832 100H92.5959C96.6917 100 100 96.7875 100 92.85V7.17075C100 3.22085 96.6915 0 92.5998 0ZM30.3249 83.7042H15.2209V38.5666H30.3251V83.7042H30.3249ZM22.7624 32.4083H22.6625C17.5916 32.4083 14.3124 28.9166 14.3124 24.5999C14.3124 20.1623 17.6916 16.7915 22.8582 16.7915C28.029 16.7915 31.2083 20.1623 31.304 24.5999C31.3082 28.9166 28.0332 32.4083 22.7624 32.4083ZM84.7791 83.7042H69.7042V59.5625C69.7042 53.4958 67.4876 49.325 62.0209 49.325C57.825 49.325 55.3708 52.1333 54.2917 54.8583C53.8958 55.7832 53.7917 57.1374 53.7917 58.4957V83.7039H38.6791C38.6791 83.7039 38.8707 42.7915 38.6791 38.5664H53.7917V44.9665C55.7751 41.8956 59.3667 37.4998 67.3874 37.4998C77.3373 37.4998 84.7791 43.9541 84.7791 57.8206V83.7042ZM53.6999 45.1125C53.7124 45.0667 53.7331 45.0209 53.7873 44.9709V45.1125H53.6999Z" fill="#6D544A"/>
</svg>
