<svg width="100" height="100" viewBox="0 0 100 100" fill="none" xmlns="http://www.w3.org/2000/svg">
<rect width="100" height="100" rx="7" fill="#6D544A"/>
<path fill-rule="evenodd" clip-rule="evenodd" d="M60.5669 29.9565H82.0871V32.9102H60.5669V29.9565Z" fill="#DFDAD9"/>
<path fill-rule="evenodd" clip-rule="evenodd" d="M47.3655 30.4935C46.0425 28.6925 44.2651 27.3366 42.0338 26.4204C39.8513 25.5243 37.2365 25.0537 34.1898 25.0033L34.1766 25H10.844H10V25.844V74.156V75H10.844H32.6009C33.8297 75 35.0355 74.9431 36.2169 74.8299C37.3865 74.7178 38.5109 74.5498 39.5887 74.3266C40.6973 74.0971 41.7364 73.7672 42.7033 73.3372C43.6728 72.9059 44.5694 72.3742 45.3898 71.7414C46.1163 71.1955 46.7781 70.5901 47.3755 69.9264C47.9762 69.2592 48.5188 68.5273 49.0033 67.7323L49.0043 67.733C49.7665 66.5305 50.3366 65.2446 50.7172 63.8752C51.0941 62.5191 51.2811 61.0847 51.2808 59.5722H51.2841C51.2841 58.1179 51.1173 56.764 50.7838 55.5103C50.4467 54.2436 49.9408 53.0871 49.2663 52.0411L49.2648 52.042C48.5856 50.9807 47.7417 50.0675 46.7365 49.2997C46.163 48.8616 45.5381 48.4709 44.8624 48.1267C45.1317 47.9537 45.3862 47.7776 45.626 47.5985C46.2891 47.103 46.8522 46.5741 47.3151 46.0117C48.1324 45.0274 48.7423 43.8937 49.1459 42.6079C49.5438 41.3395 49.7423 39.9268 49.7423 38.3673C49.7423 36.8557 49.5469 35.4445 49.1545 34.134C48.7602 32.8172 48.1655 31.6056 47.3689 30.5001L47.3656 30.4935H47.3655ZM21.9855 33.3866H30.9792C32.1477 33.3866 33.2305 33.4545 34.2248 33.5867C35.2386 33.7216 36.1462 33.9243 36.9452 34.1908L36.998 34.2106C38.0399 34.6423 38.8245 35.3125 39.3522 36.2189C39.8621 37.0947 40.1168 38.1709 40.1168 39.4454C40.1168 40.5833 39.9284 41.5635 39.5499 42.3861C39.154 43.2462 38.5552 43.9207 37.752 44.4093L37.7528 44.4109C37.0222 44.8583 36.189 45.1925 35.2514 45.413C34.3355 45.6285 33.3217 45.7363 32.2083 45.7363H21.9855H21.1416V44.8923V34.2305V33.3866H21.9855L21.9855 33.3866ZM37.5346 52.9409C38.7193 53.4797 39.613 54.2582 40.215 55.2726C40.8065 56.2694 41.1023 57.4735 41.1023 58.8819C41.1023 60.5068 40.8051 61.8834 40.2107 63.0138C39.5972 64.1806 38.6811 65.0661 37.4628 65.6725H37.4562C36.7934 65.9972 36.0182 66.2344 35.1293 66.3873C34.2632 66.5363 33.2863 66.6091 32.1967 66.6091H21.9855H21.1417L21.1416 65.7652V52.8873V52.0433H21.9855H32.3563L32.3629 52.0466C33.4488 52.0579 34.4144 52.1341 35.2565 52.2766C36.1348 52.4253 36.8952 52.6462 37.5346 52.9409V52.9409Z" fill="#DFDAD9"/>
<path fill-rule="evenodd" clip-rule="evenodd" d="M86.1118 43.3871C85.2841 42.1571 84.3457 41.0932 83.2962 40.1936C82.2409 39.2892 81.0723 38.5501 79.7895 37.9747C78.518 37.4053 77.1747 36.9811 75.7602 36.7006C74.3482 36.4207 72.864 36.2815 71.308 36.2815C68.6724 36.2815 66.2736 36.6994 64.109 37.5378C61.9348 38.3799 60.01 39.643 58.332 41.3297C56.6513 43.0217 55.3942 45.0767 54.56 47.4954C53.7362 49.8835 53.3247 52.6244 53.3247 55.7187C53.3247 59.0221 53.7837 61.8771 54.7003 64.2852C55.6326 66.7345 57.0367 68.7171 58.9112 70.2347L58.9145 70.2381C60.7522 71.7156 62.7326 72.8263 64.8564 73.5689C66.9821 74.312 69.2407 74.6844 71.6327 74.6844C74.5201 74.6844 77.1001 74.2425 79.3709 73.3614C81.6658 72.4708 83.6323 71.136 85.2683 69.3595C86.3124 68.2507 87.1303 67.1428 87.7243 66.0338C88.3342 64.8953 88.7053 63.762 88.8398 62.6326L88.9519 61.6898H88.0023H78.7684H78.2667L78.0267 62.1382C77.7786 62.6017 77.5129 63.016 77.2296 63.3778C76.9618 63.7197 76.6775 64.014 76.3765 64.2577L76.3699 64.261C75.8097 64.7238 75.1638 65.0693 74.4332 65.2993C73.6801 65.5364 72.8303 65.6539 71.8852 65.6539C70.9749 65.6539 70.1416 65.5564 69.3866 65.3599C68.645 65.167 67.9657 64.8755 67.3494 64.4841L67.3363 64.4775C66.3382 63.8675 65.5748 63.0265 65.0452 61.9557C64.5981 61.0517 64.312 59.9799 64.1861 58.7409H88.478H89.3069L89.3187 57.9068L89.3242 57.4176L89.3272 56.938H89.3305V56.4129H89.3272C89.324 55.2459 89.2962 54.2163 89.2455 53.3241C89.1919 52.3851 89.1142 51.5785 89.0135 50.9045L89.0101 50.8979C88.7881 49.4814 88.4377 48.1498 87.9569 46.9008C87.4723 45.6418 86.8581 44.4714 86.1119 43.3872L86.1118 43.3871ZM67.9334 44.2873C68.9258 43.9215 70.0503 43.7372 71.308 43.7372C72.468 43.7372 73.5425 43.9105 74.5303 44.2557C75.5311 44.6054 76.4296 45.127 77.2247 45.8191L77.2232 45.8207C78.0414 46.5276 78.6769 47.393 79.1298 48.4178C79.5718 49.418 79.8381 50.5687 79.9291 51.8718L79.992 52.7718H79.0885H63.4986H62.5245L62.6645 51.8092C62.8405 50.5988 63.1448 49.5108 63.5789 48.5456C64.0201 47.5649 64.5963 46.7106 65.3089 45.9829C66.0376 45.2298 66.912 44.6636 67.9334 44.2873V44.2873Z" fill="#DFDAD9"/>
</svg>
