<svg width="100" height="100" viewBox="0 0 100 100" fill="none" xmlns="http://www.w3.org/2000/svg">
<g clip-path="url(#clip0)">
<rect width="99" height="100" fill="#DFDAD9"/>
<g clip-path="url(#clip1)">
<path d="M50 -15C56.9631 -15 121.822 -7.48708 125.292 -1.45833C128.781 4.57042 113.073 100.305 109.583 106.333C106.094 112.362 56.9591 115 50 115C43.0369 115 -6.09365 112.362 -9.58333 106.333C-13.0527 100.305 -23.3445 1.32042 -19.8751 -4.70833C-16.3854 -10.7371 43.0409 -15 50 -15ZM62.4434 21.8388C61.6594 21.8388 61.0256 22.4522 61.0256 23.2362V44.2272H38.9784V22.4116H42.7647C43.5284 22.4116 44.1419 21.7981 44.1419 21.0141C44.1419 20.5062 43.8656 20.0634 43.4878 19.8278L34.9606 11.6622C34.7047 11.3006 34.1969 11.0691 33.7337 11.0691C33.2909 11.0691 32.8644 11.3006 32.6125 11.6419L23.5125 19.8319C23.1306 20.0878 22.8584 20.5103 22.8584 21.0181C22.8584 21.7819 23.4719 22.4156 24.2559 22.4156H28.0666L28.1072 76.7719C28.1072 77.5559 28.7003 78.1694 29.4844 78.1694H37.5687C38.3325 78.1694 38.9662 77.5559 38.9662 76.7719V55.0822H61.0338V77.5722H57.2475C56.4634 77.5722 55.85 78.2059 55.85 78.9697C55.85 79.4775 56.1263 79.9203 56.5041 80.1559L65.0516 88.3459C65.2831 88.6831 65.8153 88.9391 66.2784 88.9391C66.7416 88.9391 67.1235 88.6831 67.3997 88.3459L76.4997 80.1559C76.8816 79.9244 77.1538 79.4775 77.1538 78.9697C77.1538 78.2059 76.52 77.5722 75.7563 77.5722H71.9456L71.905 23.2362C71.905 22.4319 71.2916 21.8184 70.5278 21.8184H62.4434V21.8388Z" fill="#6D544A"/>
</g>
</g>
<defs>
<clipPath id="clip0">
<rect width="99.0099" height="100" rx="7" fill="white"/>
</clipPath>
<clipPath id="clip1">
<rect width="130" height="130" fill="white" transform="translate(-15 -15)"/>
</clipPath>
</defs>
</svg>
