<svg width="100" height="100" viewBox="0 0 100 100" fill="none" xmlns="http://www.w3.org/2000/svg">
<g clip-path="url(#clip0)">
<rect width="100" height="100" rx="7" fill="#6D544A"/>
<path d="M42.418 89.0195C41.1289 89.1562 40.0352 89.293 38.9414 89.4102C33.2578 89.9766 28.2969 88.4336 24.5469 84C23.375 82.6133 22.7109 80.8164 21.7148 79.2734C20.1719 76.8516 18.5898 74.4492 16.8906 72.125C16.3047 71.3242 15.2891 70.8555 14.5078 70.1719C14.2539 69.957 14.1758 69.5469 14 69.2148C14.3516 69.0781 14.6836 68.8438 15.0352 68.8047C19.5273 68.3945 22.6914 70.4648 24.8984 74.1953C27.6523 78.8438 31.6367 81.3828 37.0469 81.3828C38.6094 81.3828 40.1719 80.8555 41.7148 80.5039C42.0078 80.4258 42.3594 79.9766 42.3984 79.6445C42.6719 77.6133 42.9258 75.582 43.8633 73.7266C44.2148 73.043 44.625 72.3984 45.0352 71.6953C43.4531 71.3828 41.9297 71.1484 40.4258 70.7773C33.4922 69.0195 27.7695 65.543 24.4492 58.9414C23.1602 56.3633 22.4375 53.5898 22.3398 50.6992C22.1836 46.2461 22.2422 41.7734 23.1406 37.3789C23.7852 34.293 24.957 31.4219 27.3008 29.1953C27.8086 28.707 27.9062 28.2773 27.6328 27.5352C26.3242 23.8828 26.1875 20.1719 27.3008 16.4414C27.5352 15.6406 27.75 14.8398 27.9844 14C33.3359 15.0156 36.5195 18.6289 39.5078 22.6328C42.5938 20.3477 46.2461 20.1523 49.8008 19.918C54.0195 19.6445 58.2578 19.7031 62.457 20.3867C64.6445 20.7383 65.9922 21.1875 68.1211 22.457C69.957 20.5625 71.6758 18.6484 73.5703 16.9102C75.0742 15.5234 76.9492 14.6445 78.9805 14.1758C79.5469 14.0391 79.8398 14.0977 80.0742 14.7227C81.6562 19.0391 81.8906 23.3359 80.1523 27.6523C79.918 28.2383 79.9375 28.6484 80.4258 29.1172C83.2383 31.793 84.5273 35.25 84.957 38.9805C85.3476 42.4375 85.5625 45.9141 85.5625 49.3906C85.5625 54.332 84.0976 58.8633 80.9922 62.75C78.8047 65.5039 75.9727 67.4766 72.7695 68.9609C69.6641 70.3867 66.4219 71.207 63.0625 71.6367C62.9844 71.6562 62.9062 71.7148 62.7695 71.7734C65.0742 75.0742 65.4453 78.7852 65.4062 82.6328C65.3477 88.2383 65.3672 93.8242 65.4062 99.4297C65.4062 100.309 65.1523 100.523 64.293 100.523C57.3594 100.484 50.4258 100.484 43.4922 100.523C42.6328 100.523 42.3594 100.25 42.3594 99.4102C42.3984 96.3828 42.3789 93.3555 42.3789 90.3281C42.418 89.8789 42.418 89.4883 42.418 89.0195Z" fill="#DFDAD9"/>
</g>
<defs>
<clipPath id="clip0">
<rect width="100" height="100" fill="white"/>
</clipPath>
</defs>
</svg>
