<svg width="100" height="100" viewBox="0 0 100 100" fill="none" xmlns="http://www.w3.org/2000/svg">
<path d="M99.5925 56.3685C100.852 46.5597 99.1748 36.5977 94.7725 27.7423C90.3702 18.8868 83.4408 11.5357 74.8606 6.61863C66.2803 1.70152 56.4346 -0.560756 46.5686 0.117899C36.7026 0.796554 27.2595 4.38566 19.4333 10.4313C11.6072 16.477 5.74959 24.7077 2.60133 34.0825C-0.546932 43.4573 -0.844457 53.5551 1.74638 63.099C4.33721 72.6429 9.70003 81.2042 17.1566 87.7002C24.6133 94.1961 33.8287 98.335 43.6377 99.5934C56.7896 101.281 70.0731 97.6746 80.5665 89.5685C91.0598 81.4624 97.9036 69.5202 99.5925 56.3685Z" fill="#C0AF9E"/>
<path d="M68.0327 32.1334L46.9528 53.2134L40.9778 47.2434C61.7327 26.4984 63.7927 28.3234 68.0327 32.1334Z" fill="white"/>
<path d="M46.9528 53.7184C46.8866 53.7181 46.8212 53.7047 46.7602 53.6789C46.6993 53.6532 46.6441 53.6156 46.5978 53.5684L40.5978 47.5684C40.5047 47.4747 40.4524 47.348 40.4524 47.2159C40.4524 47.0838 40.5047 46.9571 40.5978 46.8634C61.6977 25.7634 63.9177 27.7584 68.3427 31.7334C68.3933 31.779 68.434 31.8345 68.4624 31.8964C68.4908 31.9583 68.5062 32.0253 68.5077 32.0934C68.5101 32.1617 68.4985 32.2298 68.4736 32.2934C68.4486 32.3571 68.4109 32.4149 68.3627 32.4634L47.3028 53.5684C47.2105 53.6626 47.0847 53.7165 46.9528 53.7184ZM41.6878 47.2184L46.9528 52.4984L67.3077 32.1434C63.6127 28.8784 61.1027 27.8634 41.6878 47.2434V47.2184Z" fill="#C0AF9E"/>
<path d="M52.9927 59.2585L47.2327 53.4985L68.3176 32.4136C73.9926 38.0936 65.5776 47.3535 52.9927 59.2585Z" fill="white"/>
<path d="M52.9927 59.7583H52.9677C52.8411 59.748 52.7224 59.6931 52.6327 59.6033L46.8777 53.8533C46.7863 53.7575 46.7345 53.6307 46.7327 53.4983C46.7323 53.4325 46.7449 53.3673 46.7698 53.3064C46.7947 53.2454 46.8313 53.19 46.8777 53.1433L67.9626 32.0634C68.0563 31.9702 68.183 31.918 68.3151 31.918C68.4472 31.918 68.5739 31.9702 68.6676 32.0634C69.2989 32.6631 69.7986 33.3875 70.1351 34.1905C70.4717 34.9936 70.6377 35.8578 70.6226 36.7284C70.5426 42.2733 64.2276 49.3183 53.3377 59.6183C53.245 59.7076 53.1214 59.7578 52.9927 59.7583ZM47.9427 53.4983C51.1677 56.7283 52.4727 58.0283 53.0027 58.5583C61.4226 50.5583 69.5426 42.3633 69.6226 36.7184C69.6565 35.3987 69.1842 34.116 68.3026 33.1334L47.9427 53.4983Z" fill="#C0AF9E"/>
<path d="M41.1227 47.3884L45.3777 51.6384C45.4037 51.6646 45.4221 51.6975 45.4309 51.7333C45.4398 51.7692 45.4388 51.8068 45.428 51.8422C45.4173 51.8775 45.3972 51.9093 45.3698 51.9341C45.3425 51.959 45.3089 51.976 45.2727 51.9834L36.4977 53.8734C36.3234 53.9118 36.1412 53.8926 35.9787 53.8187C35.8161 53.7448 35.6819 53.6202 35.5962 53.4635C35.5106 53.3068 35.4781 53.1266 35.5036 52.9498C35.5291 52.7731 35.6113 52.6094 35.7377 52.4834L40.8527 47.3884C40.8901 47.3557 40.9381 47.3376 40.9877 47.3376C41.0374 47.3376 41.0854 47.3557 41.1227 47.3884Z" fill="white"/>
<path d="M36.3178 54.3935C36.0556 54.3928 35.7997 54.3143 35.5822 54.168C35.3647 54.0218 35.1954 53.8143 35.0959 53.5718C34.9963 53.3293 34.9709 53.0628 35.0229 52.8059C35.0748 52.549 35.2018 52.3133 35.3878 52.1285L40.4778 47.0336C40.6107 46.9017 40.7904 46.8276 40.9777 46.8276C41.1651 46.8276 41.3448 46.9017 41.4777 47.0336L45.7277 51.2885C45.8183 51.3775 45.8829 51.4894 45.9147 51.6123C45.9466 51.7352 45.9444 51.8644 45.9084 51.9861C45.8725 52.1078 45.8041 52.2175 45.7106 52.3034C45.6171 52.3892 45.5021 52.448 45.3777 52.4735L36.6028 54.3635C36.5091 54.3834 36.4135 54.3935 36.3178 54.3935ZM40.9777 47.9486L36.0928 52.8335C36.0406 52.8826 36.0068 52.948 35.9968 53.0189C35.9868 53.0898 36.0012 53.162 36.0378 53.2235C36.069 53.2874 36.1216 53.3383 36.1864 53.3676C36.2512 53.3968 36.3242 53.4024 36.3928 53.3835L44.6377 51.6085L40.9777 47.9486Z" fill="#C0AF9E"/>
<path d="M79.2127 20.4285C78.124 19.3825 76.7643 18.662 75.2875 18.3485C73.8106 18.035 72.2755 18.141 70.8557 18.6545C69.436 19.1681 68.1883 20.0687 67.2538 21.2544C66.3192 22.4402 65.7351 23.8638 65.5676 25.3642C65.4 26.8647 65.6556 28.382 66.3056 29.7448C66.9555 31.1075 67.9738 32.2611 69.2453 33.0752C70.5168 33.8893 71.9907 34.3314 73.5003 34.3514C75.0099 34.3714 76.495 33.9686 77.7877 33.1885L72.1177 27.5235L79.2127 20.4285Z" fill="white"/>
<path d="M73.6025 34.8584C72.196 34.8589 70.8109 34.5142 69.5687 33.8546C68.3265 33.1949 67.2651 32.2406 66.4777 31.0751C65.6903 29.9097 65.201 28.5689 65.0526 27.1702C64.9042 25.7716 65.1013 24.3579 65.6267 23.0532C66.152 21.7485 66.9894 20.5927 68.0656 19.6871C69.1417 18.7815 70.4237 18.1539 71.7989 17.8592C73.1742 17.5645 74.6008 17.6119 75.9535 17.9971C77.3062 18.3822 78.5437 19.0935 79.5575 20.0685C79.6056 20.1143 79.6441 20.1694 79.6707 20.2303C79.6973 20.2913 79.7115 20.3569 79.7125 20.4235C79.7135 20.4901 79.7012 20.5563 79.6763 20.6181C79.6514 20.6799 79.6144 20.7361 79.5675 20.7835L72.8525 27.5234L78.1675 32.8334C78.2208 32.8874 78.2611 32.9529 78.2853 33.0248C78.3096 33.0967 78.3171 33.1732 78.3075 33.2484C78.2984 33.3243 78.2721 33.3972 78.2305 33.4613C78.1889 33.5255 78.1331 33.5792 78.0675 33.6184C76.7205 34.4323 75.1762 34.8612 73.6025 34.8584ZM73.6025 18.6885C72.4611 18.6893 71.3348 18.948 70.3074 19.445C69.2799 19.942 68.378 20.6647 67.6689 21.559C66.9598 22.4533 66.4618 23.4962 66.2121 24.6098C65.9624 25.7235 65.9673 26.8792 66.2266 27.9907C66.486 29.1021 66.9929 30.1407 67.7097 31.0289C68.4265 31.917 69.3346 32.6319 70.3662 33.1201C71.3979 33.6082 72.5265 33.8571 73.6678 33.8482C74.8091 33.8392 75.9336 33.5727 76.9575 33.0684L71.7675 27.8734C71.6733 27.7811 71.6194 27.6553 71.6175 27.5234C71.6177 27.4573 71.6311 27.3918 71.6569 27.3309C71.6826 27.27 71.7202 27.2147 71.7675 27.1684L78.4875 20.4485C77.1178 19.3072 75.3903 18.6842 73.6075 18.6885H73.6025Z" fill="#C0AF9E"/>
<path d="M79.3527 20.5385L79.2277 20.4285L72.1177 27.5234L77.7877 33.1884C78.3563 32.8576 78.8819 32.4579 79.3527 31.9984C80.1055 31.2462 80.7028 30.353 81.1103 29.3698C81.5178 28.3866 81.7275 27.3327 81.7275 26.2685C81.7275 25.2042 81.5178 24.1503 81.1103 23.1671C80.7028 22.1839 80.1055 21.2907 79.3527 20.5385Z" fill="white"/>
<path d="M77.7877 33.6886C77.7219 33.6889 77.6566 33.6763 77.5957 33.6514C77.5348 33.6266 77.4794 33.5899 77.4327 33.5436L71.7677 27.8736C71.6735 27.7813 71.6196 27.6555 71.6177 27.5236C71.618 27.4574 71.6313 27.392 71.6571 27.331C71.6828 27.2701 71.7204 27.2149 71.7677 27.1686L78.8527 20.0736C78.9461 19.982 79.0718 19.9307 79.2027 19.9307C79.3335 19.9307 79.4592 19.982 79.5527 20.0736L79.6827 20.1886C80.608 21.1096 81.3107 22.2297 81.7374 23.4636C82.1641 24.6974 82.3034 26.0124 82.1448 27.3082C81.9861 28.6041 81.5336 29.8466 80.8219 30.9411C80.1101 32.0355 79.1578 32.953 78.0377 33.6236C77.9615 33.6668 77.8752 33.6892 77.7877 33.6886ZM72.8527 27.5236L77.8527 32.5536C78.2551 32.2821 78.6317 31.9742 78.9777 31.6336C80.3611 30.25 81.1572 28.3859 81.2 26.4297C81.2429 24.4736 80.5292 22.5764 79.2077 21.1336L72.8527 27.5236Z" fill="#C0AF9E"/>
<path d="M68.9026 32.9985C68.3244 32.4224 67.5414 32.0989 66.7251 32.0989C65.9088 32.0989 65.1258 32.4224 64.5476 32.9985L45.6926 51.8585L48.8526 54.9985L68.7826 37.4985C69.0986 37.2187 69.3538 36.8769 69.5322 36.4943C69.7107 36.1117 69.8085 35.6966 69.8198 35.2746C69.831 34.8526 69.7554 34.4328 69.5976 34.0413C69.4399 33.6497 69.2033 33.2948 68.9026 32.9985Z" fill="white"/>
<path d="M48.8527 55.4985C48.7869 55.4988 48.7217 55.4862 48.6608 55.4613C48.5998 55.4365 48.5444 55.3998 48.4977 55.3535L45.3527 52.2135C45.3059 52.167 45.2687 52.1117 45.2433 52.0508C45.2179 51.9898 45.2048 51.9245 45.2048 51.8585C45.2048 51.7925 45.2179 51.7271 45.2433 51.6662C45.2687 51.6053 45.3059 51.55 45.3527 51.5035L64.1927 32.6485C64.8654 31.9789 65.776 31.603 66.7252 31.603C67.6744 31.603 68.5849 31.9789 69.2577 32.6485C69.6035 32.9943 69.8747 33.4075 70.0545 33.8623C70.2342 34.3171 70.3188 34.804 70.3028 35.2928C70.2869 35.7817 70.1708 36.262 69.9618 36.7042C69.7528 37.1463 69.4553 37.5409 69.0877 37.8635L49.1577 55.3635C49.0745 55.442 48.9668 55.4897 48.8527 55.4985ZM46.4227 51.8635L48.8727 54.3135L68.4527 37.1185C68.7188 36.8922 68.9362 36.6142 69.0916 36.3014C69.2471 35.9886 69.3375 35.6474 69.3572 35.2987C69.3769 34.9499 69.3256 34.6008 69.2063 34.2724C69.0871 33.9441 68.9024 33.6434 68.6635 33.3885C68.4246 33.1337 68.1364 32.93 67.8164 32.7899C67.4964 32.6497 67.1513 32.576 66.802 32.5732C66.4527 32.5704 66.1065 32.6385 65.7843 32.7735C65.4621 32.9085 65.1707 33.1075 64.9277 33.3585L46.4227 51.8635Z" fill="#C0AF9E"/>
<path d="M31.2327 73.2882C31.1441 73.3342 31.0731 73.4081 31.0306 73.4985C30.9882 73.5888 30.9766 73.6906 30.9977 73.7882L31.8427 77.3982C31.9176 77.6199 31.9124 77.8608 31.828 78.079C31.7436 78.2973 31.5853 78.479 31.3808 78.5926C31.1762 78.7062 30.9382 78.7444 30.7084 78.7007C30.4785 78.657 30.2713 78.534 30.1227 78.3532L24.6577 72.8882L42.6027 54.9482L48.7777 55.0432L52.9927 59.2532C51.9477 60.1282 45.9027 65.9332 31.2327 73.2882Z" fill="white"/>
<path d="M30.8527 79.1632C30.6534 79.1631 30.4561 79.1232 30.2724 79.0459C30.0887 78.9687 29.9222 78.8556 29.7827 78.7132L24.3027 73.2433C24.2104 73.1501 24.1583 73.0244 24.1577 72.8933C24.1573 72.8275 24.17 72.7622 24.1948 72.7013C24.2197 72.6404 24.2564 72.585 24.3027 72.5383L42.2477 54.5933C42.295 54.5464 42.3512 54.5093 42.413 54.4844C42.4749 54.4595 42.541 54.4473 42.6077 54.4483L48.7877 54.5433C48.9171 54.5452 49.0408 54.5971 49.1327 54.6883L53.3427 58.9033C53.3924 58.9519 53.4314 59.0104 53.4572 59.075C53.483 59.1395 53.4951 59.2088 53.4927 59.2783C53.4892 59.3475 53.4715 59.4152 53.4405 59.4772C53.4095 59.5392 53.366 59.594 53.3127 59.6383L52.9577 59.9483C47.6677 64.5933 40.4577 69.2233 31.4927 73.7133L32.3327 77.2883C32.4124 77.6112 32.3825 77.9516 32.2476 78.2557C32.1127 78.5598 31.8806 78.8105 31.5877 78.9682C31.3629 79.0939 31.1102 79.1609 30.8527 79.1632ZM25.3527 72.8933L30.4777 77.9982C30.544 78.1149 30.654 78.2005 30.7834 78.2362C30.9128 78.2718 31.051 78.2546 31.1677 78.1883C31.2844 78.1219 31.37 78.012 31.4056 77.8826C31.4412 77.7532 31.424 77.6149 31.3577 77.4983L30.5127 73.8883C30.4643 73.6804 30.4873 73.4623 30.578 73.269C30.6687 73.0758 30.8218 72.9188 31.0127 72.8233C39.8827 68.3733 47.0127 63.7933 52.2627 59.2083L48.5727 55.5183L42.8077 55.4283L25.3527 72.8933Z" fill="#C0AF9E"/>
<path d="M20.3528 77.1883L24.6478 72.8933L31.0328 79.2783L20.8328 78.5783C20.68 78.5609 20.5352 78.5006 20.4152 78.4044C20.2953 78.3081 20.2049 78.1799 20.1547 78.0346C20.1045 77.8892 20.0965 77.7326 20.1315 77.5828C20.1666 77.4331 20.2433 77.2963 20.3528 77.1883Z" fill="white"/>
<path d="M31.0427 79.7783H31.0127L20.8077 79.0783C20.5596 79.0528 20.3238 78.9575 20.1276 78.8036C19.9314 78.6496 19.7829 78.4432 19.6991 78.2083C19.6154 77.9733 19.6 77.7195 19.6546 77.4761C19.7092 77.2328 19.8316 77.0099 20.0077 76.8333L24.3027 72.5383C24.3492 72.4914 24.4045 72.4542 24.4654 72.4288C24.5263 72.4035 24.5917 72.3904 24.6577 72.3904C24.7237 72.3904 24.7891 72.4035 24.85 72.4288C24.9109 72.4542 24.9662 72.4914 25.0127 72.5383L31.3977 78.9233C31.4712 78.9952 31.5207 79.0881 31.5395 79.1892C31.5582 79.2903 31.5454 79.3947 31.5027 79.4883C31.4622 79.5758 31.3972 79.6498 31.3156 79.7013C31.2339 79.7527 31.1392 79.7795 31.0427 79.7783ZM24.6577 73.5983L20.7177 77.5383C20.6737 77.5795 20.6427 77.6327 20.6285 77.6913C20.6143 77.75 20.6175 77.8114 20.6377 77.8683C20.6566 77.9258 20.6916 77.9766 20.7386 78.0148C20.7856 78.0529 20.8425 78.0767 20.9027 78.0833L29.7477 78.6883L24.6577 73.5983Z" fill="#C0AF9E"/>
<path d="M40.7828 57.2634C40.6846 57.263 40.5886 57.2336 40.5069 57.179C40.4252 57.1243 40.3614 57.0468 40.3235 56.9561C40.2857 56.8654 40.2753 56.7656 40.2939 56.669C40.3125 56.5725 40.359 56.4836 40.4278 56.4134L45.2878 51.5534C45.3343 51.5066 45.3896 51.4694 45.4505 51.444C45.5115 51.4186 45.5768 51.4055 45.6428 51.4055C45.7088 51.4055 45.7742 51.4186 45.8351 51.444C45.896 51.4694 45.9513 51.5066 45.9978 51.5534L49.1278 54.6884C49.193 54.752 49.2395 54.8322 49.2624 54.9203C49.2853 55.0084 49.2837 55.1011 49.2578 55.1884C49.232 55.2742 49.1835 55.3516 49.1176 55.4123C49.0516 55.473 48.9705 55.5148 48.8828 55.5334L40.8828 57.2584C40.8499 57.2645 40.8163 57.2662 40.7828 57.2634ZM45.6428 52.6134L42.3528 55.9184L47.7878 54.7434L45.6428 52.6134Z" fill="#C0AF9E"/>
<path d="M48.7776 55.0434L43.2777 56.2234C43.1175 56.2595 42.95 56.2423 42.8005 56.1746C42.651 56.1069 42.5276 55.9923 42.449 55.8482C42.3705 55.7041 42.341 55.5383 42.3651 55.3759C42.3892 55.2136 42.4656 55.0635 42.5827 54.9484L45.6226 51.9084L48.7776 55.0434Z" fill="white"/>
<path d="M43.1326 56.7384C42.8841 56.7384 42.6411 56.6647 42.4345 56.5265C42.228 56.3883 42.0671 56.1918 41.9723 55.9621C41.8775 55.7323 41.8531 55.4796 41.9021 55.2359C41.9511 54.9923 42.0713 54.7686 42.2476 54.5934L45.2876 51.5534C45.3341 51.5066 45.3894 51.4694 45.4503 51.444C45.5112 51.4186 45.5766 51.4055 45.6426 51.4055C45.7086 51.4055 45.774 51.4186 45.8349 51.444C45.8958 51.4694 45.9511 51.5066 45.9976 51.5534L49.1276 54.6884C49.1927 54.752 49.2393 54.8322 49.2622 54.9203C49.2851 55.0084 49.2835 55.1011 49.2576 55.1884C49.2318 55.2742 49.1833 55.3516 49.1173 55.4123C49.0514 55.473 48.9703 55.5148 48.8826 55.5334L43.3826 56.7184C43.3002 56.7335 43.2164 56.7402 43.1326 56.7384ZM45.6326 52.6134L42.9426 55.2984C42.9021 55.337 42.8761 55.3884 42.8688 55.4438C42.8615 55.4993 42.8734 55.5556 42.9026 55.6034C42.9248 55.6559 42.9658 55.6983 43.0176 55.7224C43.0693 55.7464 43.1281 55.7503 43.1826 55.7334L47.7626 54.7334L45.6326 52.6134Z" fill="#C0AF9E"/>
<path d="M79.3876 25.3434C79.362 25.2647 79.3198 25.1924 79.2639 25.1314C79.208 25.0704 79.1397 25.022 79.0635 24.9895C78.9874 24.9571 78.9052 24.9413 78.8225 24.9433C78.7397 24.9452 78.6584 24.9649 78.5839 25.0009C78.5093 25.0369 78.4434 25.0884 78.3904 25.152C78.3375 25.2156 78.2987 25.2898 78.2768 25.3696C78.2549 25.4494 78.2504 25.533 78.2634 25.6147C78.2765 25.6964 78.3069 25.7744 78.3526 25.8434C78.5014 26.1443 78.5602 26.4816 78.5221 26.8151C78.4839 27.1485 78.3504 27.4639 78.1376 27.7234C78.0398 27.8416 77.9928 27.9936 78.0068 28.1464C78.0209 28.2991 78.0949 28.4401 78.2126 28.5384C78.3319 28.6344 78.4841 28.6797 78.6364 28.6648C78.7888 28.6498 78.9293 28.5757 79.0276 28.4584C79.3804 28.0286 79.602 27.5063 79.6659 26.9539C79.7297 26.4015 79.6331 25.8424 79.3876 25.3434Z" fill="#C0AF9E"/>
</svg>
