<svg width="102" height="100" viewBox="0 0 102 100" fill="none" xmlns="http://www.w3.org/2000/svg">
<path d="M2.91039 35.7472C2.91039 35.7472 0.499786 34.0096 3.39251 31.6894L10.1322 25.6629C10.1322 25.6629 12.0607 23.6339 14.0996 25.4017L76.2933 72.4888V95.0681C76.2933 95.0681 76.2631 98.6137 71.7131 98.222L2.91039 35.7472Z" fill="#6D544A"/>
<path d="M18.9411 50.3015L2.91058 64.8756C2.91058 64.8756 1.26333 66.101 2.91058 68.2906L10.3533 75.0604C10.3533 75.0604 12.1211 76.9587 14.7326 74.7993L31.7274 61.9126L18.9411 50.3015Z" fill="#4C3A36"/>
<path d="M47.0846 50.422L76.484 27.9732L76.2931 5.51442C76.2931 5.51442 75.0376 0.612858 70.8492 3.16408L31.7271 38.7708L47.0846 50.422Z" fill="#4C3A36"/>
<path d="M71.7129 98.2524C73.4204 100 75.4895 99.4275 75.4895 99.4275L98.4003 88.1379C101.333 86.1391 100.921 83.6581 100.921 83.6581V16.2415C100.921 13.2785 97.888 12.254 97.888 12.254L78.0307 2.68186C73.6916 5.91278e-05 70.8491 3.16398 70.8491 3.16398C70.8491 3.16398 74.5052 0.532402 76.2931 5.51432V94.6565C76.2931 95.2692 76.1625 95.8719 75.9013 96.4143C75.379 97.4689 74.2441 98.4532 71.5221 98.0414L71.7129 98.2524Z" fill="#C0AF9E"/>
</svg>
