<svg width="100" height="100" viewBox="0 0 100 100" fill="none" xmlns="http://www.w3.org/2000/svg">
<g clip-path="url(#clip0)">
<path d="M59.8023 64.7184L35.277 59.5934C35.1743 59.7919 35.06 59.9843 34.9348 60.1695L57.2617 92.7391L58.6086 91.3938L62.407 67.7727C61.765 67.5014 61.1952 67.084 60.743 66.5537C60.2908 66.0234 59.9687 65.3948 59.8023 64.718V64.7184ZM50.8555 32.6582C49.9367 34.0676 48.3508 35.0004 46.5445 35.0004C46.2664 35.0004 45.9961 34.9723 45.7305 34.9301L34.5457 52.4305L64.4277 39.5711C64.4184 39.4508 64.3918 39.3383 64.3918 39.2148C64.3918 38.9633 64.4262 38.7195 64.4668 38.4789L50.8555 32.6586V32.6582ZM51.668 29.4691L66.1465 35.6598C66.6078 35.2991 67.1355 35.0326 67.6996 34.8754L70.0793 20.0785L61.0133 11.0125L50.8086 26.9805C51.3087 27.7203 51.6051 28.5788 51.668 29.4695V29.4691ZM82.0059 32.0051L72.9199 22.9176L70.9449 35.1863C71.4456 35.4381 71.8953 35.7803 72.2715 36.1957L82.0059 32.0051ZM60.2367 61.4867C60.5923 60.8412 61.1031 60.2945 61.723 59.8959C62.3428 59.4974 63.0523 59.2595 63.7871 59.2039L66.3965 42.9742C66.1918 42.8383 66.009 42.6758 65.8293 42.5086L35.7754 55.443C35.852 55.757 35.9051 56.0773 35.9301 56.4102L60.2367 61.4867ZM84.4809 34.4816L73.9684 39.0051L99.9062 50.0945L100 50.0008L84.4809 34.4816ZM65.6949 67.8215L62.5355 87.4637L80.8809 69.1184L67.6668 66.359C67.16 67.0221 66.4766 67.529 65.6949 67.8215ZM30.0363 62.7715C29.3723 62.7715 28.7363 62.6574 28.141 62.4555L22.0473 71.9918L19.6926 69.6387L25.4645 60.6074C25.3217 60.4303 25.1887 60.2455 25.066 60.0539L14.6098 64.5559L12.1313 62.0773L23.5766 57.1508L2.88477 52.832L0.0546875 50.0008L0.95 49.1055L24.8113 54.0867C25.0857 53.5662 25.4371 53.09 25.8535 52.6742L14.2723 35.7816L16.6113 33.4426L28.7109 51.093C29.1454 50.9921 29.5899 50.9402 30.0359 50.9383C30.5469 50.9383 31.0422 51.0102 31.5156 51.132L42.8379 33.416C41.9161 32.4598 41.4013 31.1832 41.402 29.8551C41.402 29.4488 41.4535 29.0551 41.5426 28.677L27.4176 22.6379L29.8953 20.1598L43.2781 25.8832C43.9567 25.3239 44.7679 24.9486 45.6335 24.7934C46.4991 24.6383 47.3901 24.7085 48.2207 24.9973L58.6598 8.65937L50.0008 0L0 50.0008L50.0008 100.002L54.9211 95.0813L32.427 62.2648C31.6741 62.5986 30.8598 62.7711 30.0363 62.7715ZM69.5793 43.6738L66.9246 60.1727C67.3885 60.5454 67.7727 61.0078 68.0543 61.5321C68.3359 62.0564 68.5091 62.632 68.5637 63.2246L83.6309 66.3699L97.4277 52.573L72.5246 41.9258C71.812 42.8744 70.7533 43.5029 69.5793 43.6742V43.6738Z" fill="#C0AF9E"/>
</g>
<defs>
<clipPath id="clip0">
<rect width="100" height="100" fill="white"/>
</clipPath>
</defs>
</svg>
