<svg width="100" height="100" viewBox="0 0 100 100" fill="none" xmlns="http://www.w3.org/2000/svg">
<path d="M50 100C77.6142 100 100 77.6142 100 50C100 22.3858 77.6142 0 50 0C22.3858 0 0 22.3858 0 50C0 77.6142 22.3858 100 50 100Z" fill="#C0AF9E"/>
<path d="M39.0917 46.7871C39.0917 47.4023 39.1601 47.9004 39.2772 48.2617C39.414 48.6328 39.58 49.0332 39.8144 49.4629C39.9022 49.5898 39.9315 49.7266 39.9315 49.8437C39.9315 50.0098 39.8339 50.1758 39.619 50.3418L38.5741 51.0352C38.4472 51.123 38.3007 51.1816 38.1444 51.1816C37.9784 51.1816 37.8124 51.0937 37.6464 50.9473C37.4218 50.7031 37.2265 50.4492 37.0507 50.166C36.8651 49.8437 36.6894 49.5215 36.5331 49.1895C35.2343 50.7227 33.6034 51.4844 31.6405 51.4844C30.244 51.4844 29.1308 51.084 28.3202 50.293C27.5097 49.4922 27.0897 48.4277 27.0897 47.0996C27.0897 45.6836 27.5878 44.541 28.6034 43.6719C29.619 42.8027 30.9667 42.373 32.6757 42.373C33.2421 42.373 33.828 42.4219 34.4335 42.5098C35.0487 42.5977 35.6835 42.7246 36.3476 42.8809V41.6699C36.3476 40.4102 36.0839 39.5215 35.5663 39.0137C35.039 38.4961 34.1405 38.252 32.8612 38.252C32.2753 38.252 31.6796 38.3203 31.0644 38.4668C30.4491 38.6133 29.8534 38.7988 29.2675 39.0332C29.0819 39.1211 28.8866 39.1895 28.6815 39.248C28.5937 39.2773 28.5058 39.2871 28.4179 39.2969C28.1835 39.2969 28.0663 39.1309 28.0663 38.7793V37.9687C28.0663 37.7051 28.0956 37.5 28.1835 37.3828C28.3104 37.2363 28.4667 37.1094 28.6522 37.0312C29.2382 36.7285 29.9315 36.4844 30.7421 36.2793C31.5917 36.0645 32.4608 35.957 33.3397 35.9668C35.3222 35.9668 36.7675 36.416 37.6952 37.3145C38.6132 38.2129 39.0722 39.5703 39.0722 41.4062V46.7969L39.0917 46.7871ZM32.3437 49.3164C32.8905 49.3164 33.4569 49.2187 34.0526 49.0137C34.6483 48.8184 35.1854 48.4473 35.6347 47.9492C35.8983 47.6367 36.1034 47.2852 36.2011 46.8848C36.2987 46.4844 36.3671 46.0059 36.3671 45.4395V44.7461C35.8593 44.6191 35.3515 44.5312 34.8339 44.4629C34.3163 44.3945 33.789 44.3652 33.2714 44.3652C32.1581 44.3652 31.3378 44.5801 30.7909 45.0293C30.244 45.4785 29.9804 46.1133 29.9804 46.9434C29.9804 47.7246 30.1757 48.3105 30.5956 48.7012C30.996 49.1211 31.5722 49.3164 32.3437 49.3164ZM45.6933 51.1133C45.3905 51.1133 45.1952 51.0645 45.0585 50.9473C44.9218 50.8496 44.8046 50.6152 44.7069 50.3027L40.8007 37.4512C40.7226 37.2363 40.6737 37.0117 40.6542 36.7871C40.6542 36.5234 40.7909 36.3672 41.0546 36.3672H42.6854C42.9979 36.3672 43.2128 36.416 43.33 36.5332C43.4667 36.6309 43.5644 36.8652 43.662 37.1875L46.455 48.1934L49.0526 37.1875C49.1405 36.8555 49.2382 36.6406 49.3651 36.5332C49.5604 36.4062 49.7948 36.3477 50.0292 36.3672H51.3671C51.6796 36.3672 51.9042 36.416 52.0311 36.5332C52.1581 36.6309 52.2851 36.8652 52.3436 37.1875L54.9706 48.3301L57.8515 37.1875C57.9491 36.8555 58.0663 36.6406 58.1835 36.5332C58.3788 36.4062 58.6034 36.3477 58.828 36.3672H60.3808C60.6444 36.3672 60.8007 36.5039 60.8007 36.7871C60.8007 36.875 60.7811 36.9531 60.7616 37.0508C60.7323 37.1973 60.6933 37.334 60.6444 37.4707L56.6405 50.3223C56.5429 50.6543 56.4257 50.8691 56.289 50.9668C56.1034 51.084 55.8788 51.1426 55.6542 51.1328H54.2186C53.9061 51.1328 53.6913 51.084 53.5546 50.9668C53.4276 50.8496 53.3104 50.6348 53.2421 50.3027L50.664 39.5801L48.1054 50.293C48.0175 50.625 47.9198 50.8398 47.7929 50.957C47.6561 51.0742 47.4218 51.123 47.1288 51.123L45.6933 51.1133ZM67.0604 51.5625C66.1913 51.5625 65.3319 51.4648 64.5019 51.2598C63.6718 51.0645 63.0272 50.8398 62.5878 50.5957C62.3241 50.4492 62.1386 50.2832 62.0702 50.1269C62.0018 49.9805 61.9725 49.8242 61.9725 49.6582V48.8086C61.9725 48.457 62.1093 48.291 62.3534 48.291C62.4511 48.291 62.5487 48.3105 62.6561 48.3398C62.7538 48.3691 62.9101 48.4375 63.0761 48.5059C63.6425 48.7598 64.2577 48.9551 64.9022 49.0918C65.5663 49.2285 66.2108 49.2871 66.8847 49.2871C67.9296 49.2871 68.7499 49.1016 69.3163 48.7402C69.8632 48.4082 70.1952 47.8027 70.1854 47.1582C70.1952 46.7285 70.039 46.3086 69.7362 45.9961C69.4335 45.6836 68.8671 45.4004 68.0565 45.127L65.6444 44.375C64.4335 43.9941 63.5351 43.4277 62.9882 42.6855C62.4511 41.9922 62.1581 41.1426 62.1581 40.2734C62.1581 39.5801 62.3143 38.9648 62.6073 38.4277C62.91 37.9004 63.3007 37.4316 63.8085 37.0605C64.3065 36.6797 64.8729 36.3965 65.537 36.1914C66.2011 35.9961 66.9042 35.9082 67.6366 35.9082C67.9979 35.9082 68.3886 35.9277 68.7499 35.9766C69.1308 36.0254 69.4823 36.0937 69.8339 36.1621C70.1659 36.25 70.4882 36.3281 70.7811 36.4258C71.0839 36.5234 71.3183 36.6211 71.4843 36.7285C71.6796 36.8262 71.8554 36.9727 71.9823 37.1484C72.0897 37.3145 72.1386 37.5 72.1288 37.6953V38.4766C72.1288 38.8281 71.9921 39.0137 71.7479 39.0137C71.5233 38.9844 71.3085 38.916 71.1132 38.8184C70.1073 38.3789 69.0233 38.1543 67.9198 38.1738C66.9726 38.1738 66.2206 38.3203 65.703 38.6426C65.1854 38.9551 64.9218 39.4434 64.9218 40.1172C64.9218 40.5859 65.0878 40.9863 65.4198 41.2988C65.7519 41.6113 66.3671 41.9336 67.246 42.2168L69.6093 42.959C70.8007 43.3398 71.6698 43.877 72.1874 44.5605C72.705 45.2441 72.9491 46.0254 72.9491 46.8848C72.9491 47.5977 72.8026 48.252 72.5194 48.8184C72.2167 49.3848 71.8163 49.8828 71.3085 50.2832C70.7909 50.7031 70.1757 50.9961 69.4628 51.2109C68.6913 51.4453 67.9101 51.5625 67.0604 51.5625ZM70.205 59.6387C64.7362 63.6816 56.787 65.8203 49.9511 65.8203C40.371 65.8203 31.7382 62.2754 25.2245 56.3867C24.7069 55.918 25.1757 55.293 25.7909 55.6543C32.8417 59.7461 41.5429 62.2266 50.537 62.2266C56.6112 62.2266 63.2714 60.9668 69.414 58.3691C70.3222 57.959 71.1034 58.9746 70.205 59.6387ZM72.4804 57.0508C71.7772 56.1523 67.8515 56.6211 66.0741 56.8359C65.5468 56.9043 65.4589 56.4355 65.9472 56.084C69.0722 53.8867 74.2089 54.5215 74.8143 55.2539C75.41 56.0059 74.6483 61.1426 71.7186 63.6035C71.2694 63.9844 70.8397 63.7891 71.0351 63.291C71.6991 61.6406 73.1835 57.9297 72.4804 57.0508Z" fill="white"/>
</svg>
