<svg width="100" height="100" viewBox="0 0 100 100" fill="none" xmlns="http://www.w3.org/2000/svg">
<path d="M50 100C77.6142 100 100 77.6142 100 50C100 22.3858 77.6142 0 50 0C22.3858 0 0 22.3858 0 50C0 77.6142 22.3858 100 50 100Z" fill="#6D544A"/>
<path d="M80.791 45.0684C80.6348 44.9414 79.2187 43.877 76.2305 43.877C75.4394 43.877 74.6484 43.9356 73.8672 44.082C73.291 40.1074 70.0098 38.1738 69.8633 38.0859L69.0625 37.6172L68.5352 38.3789C67.8711 39.4043 67.3926 40.5274 67.1094 41.7188C66.5723 43.9844 66.8945 46.1133 68.0469 47.9297C66.6602 48.7012 64.4238 48.8965 63.9746 48.9063H27.0508C26.084 48.9063 25.3027 49.6875 25.3027 50.6543C25.2637 53.8867 25.8105 57.0996 26.9141 60.1367C28.1836 63.4766 30.0781 65.9278 32.5391 67.4317C35.293 69.1211 39.7754 70.0879 44.8633 70.0879C47.1582 70.0977 49.4531 69.8828 51.709 69.4629C54.8438 68.8867 57.8613 67.793 60.6348 66.2207C62.9199 64.8926 64.9805 63.2129 66.7285 61.2305C69.6484 57.9199 71.3965 54.2285 72.6953 50.957H73.2129C76.416 50.957 78.3887 49.6778 79.4727 48.6035C80.1953 47.9199 80.7617 47.0899 81.123 46.1621L81.3477 45.4883L80.791 45.0684ZM30.4688 47.8418H35.4199C35.6543 47.8418 35.8496 47.6465 35.8496 47.4121V43.0078C35.8496 42.7734 35.6543 42.5781 35.4199 42.5684H30.4688C30.2344 42.5684 30.0391 42.7637 30.0391 42.9981V47.4121C30.0391 47.6563 30.2344 47.8418 30.4688 47.8418ZM37.2949 47.8418H42.2461C42.4805 47.8418 42.6758 47.6465 42.6758 47.4121V43.0078C42.6758 42.7734 42.4805 42.5781 42.2461 42.5684H37.2949C37.0508 42.5684 36.8555 42.7637 36.8555 43.0078V47.4121C36.8555 47.6563 37.0508 47.8418 37.2949 47.8418ZM44.209 47.8516H49.1602C49.3945 47.8516 49.5898 47.6563 49.5898 47.4219V43.0176C49.5898 42.7832 49.3945 42.5879 49.1602 42.5781H44.209C43.9746 42.5781 43.7793 42.7734 43.7793 43.0078V47.4219C43.7793 47.6563 43.9746 47.8418 44.209 47.8516ZM51.0547 47.8516H56.0059C56.2402 47.8516 56.4355 47.6563 56.4453 47.4219V43.0176C56.4453 42.7734 56.25 42.5781 56.0059 42.5781H51.0547C50.8203 42.5781 50.625 42.7734 50.625 43.0078V47.4219C50.625 47.6563 50.8105 47.8516 51.0547 47.8516ZM37.2852 41.5039H42.2363C42.4707 41.5039 42.666 41.3086 42.666 41.0645V36.6602C42.666 36.4258 42.4707 36.2305 42.2363 36.2305H37.2852C37.041 36.2305 36.8555 36.4258 36.8457 36.6602V41.0645C36.8555 41.3086 37.0508 41.5039 37.2852 41.5039ZM44.209 41.5039H49.1602C49.3945 41.5039 49.5898 41.3086 49.5898 41.0645V36.6602C49.5898 36.4258 49.3945 36.2305 49.1602 36.2305H44.209C43.9746 36.2305 43.7793 36.4258 43.7793 36.6602V41.0645C43.7793 41.3086 43.9746 41.5039 44.209 41.5039ZM51.0547 41.5039H56.0059C56.25 41.5039 56.4355 41.3086 56.4453 41.0645V36.6602C56.4453 36.416 56.25 36.2305 56.0059 36.2305H51.0547C50.8203 36.2305 50.625 36.4258 50.625 36.6602V41.0645C50.625 41.3086 50.8105 41.5039 51.0547 41.5039ZM51.0547 35.166H56.0059C56.25 35.166 56.4453 34.9707 56.4453 34.7266V30.3125C56.4453 30.0781 56.25 29.8828 56.0059 29.8828H51.0547C50.8203 29.8828 50.625 30.0781 50.625 30.3125V34.7266C50.625 34.9707 50.8105 35.166 51.0547 35.166ZM57.9492 47.8516H62.9004C63.1348 47.8516 63.3301 47.6563 63.3301 47.4219V43.0176C63.3301 42.7734 63.1348 42.5879 62.9004 42.5781H57.9492C57.7148 42.5781 57.5195 42.7734 57.5195 43.0078V47.4219C57.5195 47.6563 57.7148 47.8516 57.9492 47.8516Z" fill="white"/>
</svg>
