<svg width="100" height="100" viewBox="0 0 100 100" fill="none" xmlns="http://www.w3.org/2000/svg">
<g clip-path="url(#clip0)">
<path d="M33.3464 100C37.7666 100 42.0059 98.2441 45.1315 95.1185C48.2571 91.9929 50.013 87.7537 50.013 83.3334V66.6667H33.3464C28.9261 66.6667 24.6868 68.4227 21.5612 71.5483C18.4356 74.6739 16.6797 78.9131 16.6797 83.3334C16.6797 87.7537 18.4356 91.9929 21.5612 95.1185C24.6868 98.2441 28.9261 100 33.3464 100Z" fill="#C0AF9E"/>
<path d="M16.6797 49.9999C16.6797 45.5796 18.4356 41.3404 21.5612 38.2148C24.6868 35.0892 28.9261 33.3333 33.3464 33.3333H50.013V66.6666H33.3464C28.9261 66.6666 24.6868 64.9106 21.5612 61.785C18.4356 58.6594 16.6797 54.4202 16.6797 49.9999Z" fill="#6D544A"/>
<path d="M16.6797 16.6667C16.6797 12.2486 18.4338 8.01139 21.5566 4.88615C24.6794 1.76092 28.9153 0.00345158 33.3333 0L50 0V33.3333H33.3464C28.9261 33.3333 24.6868 31.5774 21.5612 28.4518C18.4356 25.3262 16.6797 21.0869 16.6797 16.6667Z" fill="#4C3A36"/>
<path d="M50.0129 0H66.6796C71.0999 0 75.3391 1.75595 78.4647 4.88155C81.5903 8.00716 83.3463 12.2464 83.3463 16.6667C83.3463 21.0869 81.5903 25.3262 78.4647 28.4518C75.3391 31.5774 71.0999 33.3333 66.6796 33.3333H50.0129V0Z" fill="#C0AF9E"/>
<path d="M83.3463 49.9999C83.3463 54.4202 81.5903 58.6594 78.4647 61.785C75.3391 64.9106 71.0999 66.6666 66.6796 66.6666C62.2593 66.6666 58.0201 64.9106 54.8945 61.785C51.7689 58.6594 50.0129 54.4202 50.0129 49.9999C50.0129 45.5796 51.7689 41.3404 54.8945 38.2148C58.0201 35.0892 62.2593 33.3333 66.6796 33.3333C71.0999 33.3333 75.3391 35.0892 78.4647 38.2148C81.5903 41.3404 83.3463 45.5796 83.3463 49.9999Z" fill="#C0AF9E"/>
</g>
<defs>
<clipPath id="clip0">
<rect width="100" height="100" fill="white"/>
</clipPath>
</defs>
</svg>
