<svg width="50" height="50" viewBox="0 0 50 50" fill="none" xmlns="http://www.w3.org/2000/svg">
<path d="M29.1321 26.4078C28.2992 26.4193 29.2896 26.8346 30.3769 27.001C30.66 26.7813 30.9322 26.5481 31.1926 26.3022C30.5155 26.4672 29.8263 26.471 29.1321 26.4079V26.4078ZM33.6022 25.2997C34.0982 24.6191 34.4597 23.8738 34.5872 23.1032C34.4759 23.6526 34.1759 24.1268 33.8938 24.6273C32.337 25.6021 33.7474 24.0485 33.8928 23.4581C32.2188 25.5533 33.6628 24.7145 33.6022 25.2999V25.2997ZM35.2521 21.03C35.3528 19.5387 34.9571 20.0101 34.8239 20.5794C34.9793 20.6595 35.1021 21.6306 35.2521 21.0302V21.03ZM25.974 0.644775C26.4184 0.724113 26.9342 0.784839 26.8619 0.89036C27.3482 0.784366 27.4584 0.686731 25.974 0.644775V0.644775ZM26.8619 0.89036L26.5479 0.955028L26.8402 0.929161L26.8619 0.89036Z" fill="#6D544A"/>
<path d="M40.7217 21.5957C40.7712 22.9352 40.3277 23.585 39.9277 24.7353L39.2079 25.093C38.6189 26.2304 39.265 25.8153 38.8431 26.72C37.9237 27.5329 36.0527 29.2642 35.4539 29.4222C35.0168 29.4124 35.7501 28.9091 35.846 28.712C34.615 29.5527 34.8584 29.9738 32.9756 30.4845L32.9206 30.3629C28.2774 32.535 21.8278 28.2304 21.9127 22.3566C21.863 22.7295 21.7716 22.6364 21.6689 22.7872C21.4292 19.7651 23.0723 16.7296 25.8434 15.4904C28.5537 14.156 31.7313 14.7036 33.6727 16.503C32.6062 15.1137 30.4835 13.6411 27.9678 13.779C25.5036 13.8176 23.1984 15.3752 22.4289 17.0656C21.1664 17.8561 21.02 20.1126 20.4698 20.5255C19.7297 25.935 21.8621 28.2722 25.4692 31.0214C26.037 31.4022 25.6292 31.4599 25.7062 31.7497C24.5075 31.1915 23.4101 30.349 22.5078 29.3175C22.9864 30.0145 23.5032 30.6919 24.1711 31.2243C23.0412 30.8435 21.5317 28.5012 21.0909 28.406C23.0388 31.8741 28.994 34.4883 32.1122 33.1915C30.6694 33.2443 28.8364 33.2208 27.2152 32.6249C26.5343 32.2765 25.6085 31.5547 25.7737 31.4197C30.0293 33.0006 34.4253 32.617 38.1077 29.6815C39.0444 28.9561 40.0678 27.7219 40.3634 27.7049C39.9181 28.3708 40.4396 28.0251 40.0974 28.6134C41.0309 27.1164 39.6919 28.0039 41.0623 26.0282L41.5684 26.7213C41.3803 25.4787 43.1201 23.9699 42.9436 22.0046C43.3426 21.4036 43.3889 22.6512 42.9653 24.0339C43.5531 22.5 43.1201 22.2534 43.2713 20.9878C43.4345 21.4132 43.6486 21.8654 43.7583 22.3143C43.3755 20.832 44.1514 19.8181 44.3433 18.9566C44.1541 18.8733 43.7523 19.6121 43.6605 17.8612C43.674 17.1006 43.8733 17.4624 43.9503 17.2754C43.8001 17.1896 43.4062 16.6066 43.1666 15.4883C43.3402 15.2257 43.6308 16.1697 43.8673 16.2083C43.7152 15.3192 43.4533 14.6413 43.4427 13.9591C42.7521 12.524 43.1985 14.1505 42.6381 13.343C41.9031 11.0629 43.2481 12.8139 43.339 11.7777C44.4531 13.3831 45.0885 15.871 45.38 16.9016C45.1576 15.6451 44.7979 14.4279 44.359 13.2503C44.6973 13.3918 43.814 10.6651 44.7988 12.4711C43.7468 8.62159 40.2962 5.02474 37.1219 3.33704C37.5103 3.69036 38.0006 4.13436 37.8245 4.20392C36.2459 3.26922 36.5236 3.19635 36.2974 2.8014C35.0113 2.28105 34.927 2.84335 34.075 2.80234C31.6511 1.5238 31.184 1.65976 28.9533 0.858811L29.0548 1.33042C27.4488 0.798401 27.1836 1.53216 25.4479 1.332C25.3423 1.24998 26.0042 1.03531 26.5487 0.956603C24.9961 1.16007 25.0689 0.652187 23.5495 1.01275C23.924 0.751398 24.3199 0.578527 24.7194 0.356445C23.4532 0.432944 21.6966 1.08925 22.2388 0.492407C20.1736 1.40865 16.5057 2.69493 14.4474 4.61417L14.3824 4.18405C13.4395 5.31023 10.2696 7.54682 10.0171 9.00503L9.76493 9.06354C9.27418 9.89004 8.95664 10.8265 8.56741 11.6768C7.92551 12.7645 7.62653 12.0954 7.71789 12.2659C6.45534 14.8113 5.82819 16.9505 5.28638 18.7046C5.6726 19.2784 5.29574 22.1588 5.44182 24.4643C4.80769 35.8503 13.4774 46.9052 22.9541 49.4577C24.3431 49.9517 26.4086 49.9328 28.1657 49.9836C26.0927 49.394 25.8246 49.6711 23.8055 48.971C22.3487 48.2888 22.0294 47.5099 20.9978 46.6195L21.406 47.3372C19.3825 46.6251 20.2292 46.4558 18.5831 45.9374L19.0193 45.371C18.3634 45.3216 17.282 44.2716 16.9863 43.6905L16.2689 43.7186C15.4069 42.6609 14.9476 41.8984 14.981 41.3082L14.7491 41.7188C14.4863 41.2703 11.5777 37.7519 13.0867 38.571C12.8063 38.3161 12.4337 38.1561 12.0296 37.426L12.3368 37.0766C11.6105 36.1476 11.0002 34.9566 11.0465 34.5598C11.434 35.0801 11.7028 35.1773 11.9688 35.2664C10.1348 30.7411 10.032 35.017 8.64291 30.6601L8.93682 30.6366C8.71159 30.2992 8.57487 29.9328 8.39357 29.5735L8.52157 28.3058C7.20113 26.7877 8.15201 21.8506 8.34266 19.1429C8.47462 18.0419 9.44469 16.8697 10.1826 15.0317L9.73305 14.9547C10.5922 13.4642 14.6394 8.96859 16.5137 9.19998C17.4216 8.06591 16.3333 9.19588 16.1559 8.91007C18.1501 6.85771 18.7772 7.46007 20.1232 7.09099C21.5746 6.23421 18.8773 7.42506 19.5655 6.76417C22.0748 6.12679 21.3439 5.31512 24.6173 4.99162C24.9627 5.18704 23.8161 5.29351 23.5283 5.54698C25.6189 4.52979 30.1443 4.76118 33.0836 6.11165C36.4944 7.69667 40.3263 12.382 40.4775 16.7905L40.6494 16.8366C40.5622 18.5889 40.919 20.6154 40.3008 22.477L40.7217 21.5957" fill="#6D544A"/>
<path d="M20.0415 27.5448L19.9248 28.1256C20.472 28.8648 20.9064 29.6658 21.6053 30.2438C21.1025 29.2675 20.7289 28.8644 20.0415 27.5448ZM21.3356 27.4942C21.0458 27.1756 20.8744 26.7923 20.6826 26.4101C20.8661 27.0815 21.2419 27.6587 21.5919 28.2454L21.3356 27.4942ZM44.2329 22.5451L44.1106 22.8502C43.8863 24.4347 43.4019 26.0027 42.6593 27.4563C43.4798 25.9224 44.0105 24.245 44.2329 22.5451ZM26.1385 0.247634C26.7016 0.042429 27.5229 0.135016 28.1204 0C27.3416 0.0649842 26.5668 0.103628 25.8015 0.201893L26.1385 0.247634ZM6.36904 10.7014C6.49895 11.8961 5.46528 12.3598 6.59808 11.5721C7.20524 10.212 6.3608 11.1965 6.36904 10.7014ZM5.03798 16.2303C5.29889 15.4339 5.34616 14.9555 5.44593 14.4946C4.72472 15.4114 5.11411 15.6066 5.03798 16.2303Z" fill="#6D544A"/>
</svg>
