<svg width="100" height="100" viewBox="0 0 100 100" fill="none" xmlns="http://www.w3.org/2000/svg">
<g clip-path="url(#clip0)">
<path d="M25.2932 77.9785L1.07446 58.9104L13.1057 36.5601L47.637 50.0015L25.2932 77.9785Z" fill="#6D544A"/>
<path d="M100.01 26.7188L98.1348 84.5312L59.6973 100L36.5723 85L70.3223 50L55.6348 17.5L68.916 1.5625L100.01 26.7188Z" fill="#6D544A"/>
<path d="M99.9902 26.7188L69.5215 62.6562L55.6152 17.5L68.8965 1.5625L99.9902 26.7188Z" fill="#C0AF9E"/>
<path d="M48.125 82.9688L8.125 97.5L14.5312 75L22.8125 47.1875L0 39.5312L14.5312 0L45.7812 3.75L76.7188 39.0625L48.125 82.9688Z" fill="#C0AF9E"/>
<path d="M18.75 18.75H81.25V81.25H18.75V18.75Z" fill="#4C3A36"/>
<path d="M24.7068 69.5312H48.148V73.4375H24.7068V69.5312ZM41.4282 31.5625V26.875H28.6137V31.5625H32.208V47.9688H28.6137V52.8125H41.4282V47.9688H37.8339V31.5625H41.4282ZM53.9302 53.125C52.1461 53.2055 50.371 52.829 48.7731 52.0312C47.4659 51.3102 46.3009 50.3571 45.3351 49.2188L48.9294 45.1562C49.5785 45.8692 50.3133 46.499 51.1173 47.0312C51.8737 47.4747 52.7415 47.6916 53.6177 47.6562C54.0921 47.6925 54.5683 47.6117 55.0042 47.421C55.4402 47.2303 55.8227 46.9355 56.1181 46.5625C56.8419 45.6304 57.1778 44.4549 57.0557 43.2813V26.5625H62.8379V43.4375C62.8972 44.8195 62.6848 46.1997 62.2128 47.5C61.8004 48.8192 61.0455 50.0053 60.0249 50.9375C58.2539 52.2522 56.1332 53.0133 53.9302 53.125Z" fill="white"/>
</g>
<defs>
<clipPath id="clip0">
<rect width="100" height="100" fill="white"/>
</clipPath>
</defs>
</svg>
